<svg xmlns="http://www.w3.org/2000/svg" xmlns:xlink="http://www.w3.org/1999/xlink" version="1.1" id="Layer_1" x="0px" y="0px" viewBox="5.0 -6.5738 100.0 88.7463" enable-background="new 0 0 100 65.738" xml:space="preserve">
<path d="M60.942,0h-21.72c-2.512,0-4.552,2.037-4.552,4.549v21.72c0,2.513,2.04,4.552,4.552,4.552h21.72  c2.512,0,4.554-2.039,4.554-4.552V4.549C65.496,2.037,63.454,0,60.942,0z M46.79,16.803l3.293-4.897l3.291,4.897H46.79z"/>
<path d="M60.861,34.918h-21.72c-2.513,0-4.549,2.037-4.549,4.552v21.715c0,2.518,2.037,4.554,4.549,4.554h21.72  c2.516,0,4.554-2.036,4.554-4.554V39.47C65.415,36.955,63.377,34.918,60.861,34.918z M50.083,53.621l-3.293-4.898h6.583  L50.083,53.621z"/>
<path d="M95.454,34.918H73.735c-2.517,0-4.554,2.037-4.554,4.552v21.715c0,2.518,2.037,4.554,4.554,4.554h21.719  c2.518,0,4.546-2.036,4.546-4.554V39.47C100,36.955,97.972,34.918,95.454,34.918z M83.404,53.621v-6.588l4.898,3.296L83.404,53.621z  "/>
<path d="M26.269,34.918H4.55C2.037,34.918,0,36.955,0,39.47v21.715c0,2.518,2.037,4.554,4.55,4.554h21.719  c2.512,0,4.552-2.036,4.552-4.554V39.47C30.821,36.955,28.781,34.918,26.269,34.918z M16.691,53.621l-4.896-3.292l4.896-3.296  V53.621z"/>
</svg>
