<svg xmlns="http://www.w3.org/2000/svg" xmlns:xlink="http://www.w3.org/1999/xlink" version="1.1" x="0px" y="0px" width="100px" height="100px" viewBox="5.0 -10.0 100.0 135.0" enable-background="new 0 0 100 100" xml:space="preserve">
<g id="Captions">
</g>
<g id="Your_Icon">
	<path d="M50.382,90.54c-21.777,0-39.493-18.004-39.493-40.132c0-22.13,17.716-40.134,39.493-40.134   c21.775,0,39.492,18.004,39.492,40.134C89.874,72.536,72.157,90.54,50.382,90.54z M50.382,12.408   c-20.599,0-37.358,17.047-37.358,38c0,20.951,16.759,37.998,37.358,37.998c20.598,0,37.357-17.047,37.357-37.998   C87.739,29.455,70.979,12.408,50.382,12.408z"/>
	<path d="M78.449,32.262c-0.346,0-0.688-0.169-0.892-0.481c-5.998-9.142-15.972-14.699-26.681-14.863   c-0.589-0.01-1.06-0.494-1.051-1.084c0.01-0.589,0.417-1.109,1.084-1.051c11.417,0.176,22.046,6.093,28.432,15.826   c0.323,0.493,0.186,1.155-0.307,1.478C78.854,32.206,78.652,32.262,78.449,32.262z"/>
	<path d="M84.03,48.145c-0.544,0-1.009-0.415-1.062-0.968c-0.368-3.957-1.432-7.8-3.156-11.424   c-0.254-0.532-0.026-1.168,0.506-1.423c0.528-0.253,1.168-0.028,1.421,0.505c1.835,3.851,2.962,7.937,3.356,12.144   c0.054,0.587-0.377,1.107-0.963,1.162C84.097,48.143,84.063,48.145,84.03,48.145z"/>
</g>
<text x="0.0" y="117.5" font-size="5.0" font-weight="bold" font-family="Helvetica Neue, Helvetica, Arial-Unicode, Arial, Sans-serif" fill="#000000">Created by Julien Deveaux</text><text x="0.0" y="122.5" font-size="5.0" font-weight="bold" font-family="Helvetica Neue, Helvetica, Arial-Unicode, Arial, Sans-serif" fill="#000000">from the Noun Project</text></svg>