<svg xmlns="http://www.w3.org/2000/svg" xmlns:xlink="http://www.w3.org/1999/xlink" version="1.1" id="Layer_1" x="0px" y="0px" width="100px" height="100px" viewBox="5.0 -10.0 100.0 135.0" enable-background="new 0 0 100 100" xml:space="preserve">
<g>
	<path d="M18.839,66.03H8.062c-0.457,0-0.827-0.37-0.827-0.827V40.441c0-0.457,0.37-0.827,0.827-0.827h10.776   c0.457,0,0.827,0.37,0.827,0.827v24.762C19.666,65.66,19.296,66.03,18.839,66.03z M8.89,64.376h9.122V41.269H8.89V64.376z"/>
</g>
<g>
	<path d="M18.839,62.822h-7.568c-0.457,0-0.827-0.37-0.827-0.827V43.649c0-0.457,0.37-0.827,0.827-0.827h7.568   c0.457,0,0.827,0.37,0.827,0.827v18.346C19.666,62.452,19.296,62.822,18.839,62.822z M12.098,61.168h5.914V44.477h-5.914V61.168z"/>
</g>
<g>
	<path d="M33.059,68.675h-14.22c-0.457,0-0.827-0.37-0.827-0.827v-30.05c0-0.457,0.37-0.827,0.827-0.827h14.22   c0.457,0,0.827,0.37,0.827,0.827v30.05C33.886,68.305,33.516,68.675,33.059,68.675z M19.666,67.021h12.565V38.625H19.666V67.021z"/>
</g>
<g>
	<path d="M33.059,65.467H22.047c-0.457,0-0.827-0.37-0.827-0.827V41.006c0-0.457,0.37-0.827,0.827-0.827h11.012   c0.457,0,0.827,0.37,0.827,0.827V64.64C33.886,65.097,33.516,65.467,33.059,65.467z M22.874,63.812h9.357V41.833h-9.357V63.812z"/>
</g>
<g>
	<path d="M94.521,66.03H83.744c-0.457,0-0.827-0.37-0.827-0.827V40.441c0-0.457,0.37-0.827,0.827-0.827h10.776   c0.457,0,0.827,0.37,0.827,0.827v24.762C95.348,65.66,94.978,66.03,94.521,66.03z M84.571,64.376h9.122V41.269h-9.122V64.376z"/>
</g>
<g>
	<path d="M91.312,62.822h-7.568c-0.457,0-0.827-0.37-0.827-0.827V43.649c0-0.457,0.37-0.827,0.827-0.827h7.568   c0.457,0,0.827,0.37,0.827,0.827v18.346C92.14,62.452,91.77,62.822,91.312,62.822z M84.571,61.168h5.914V44.477h-5.914V61.168z"/>
</g>
<g>
	<path d="M83.744,68.675h-14.22c-0.457,0-0.827-0.37-0.827-0.827v-30.05c0-0.457,0.37-0.827,0.827-0.827h14.22   c0.457,0,0.827,0.37,0.827,0.827v30.05C84.571,68.305,84.201,68.675,83.744,68.675z M70.352,67.021h12.565V38.625H70.352V67.021z"/>
</g>
<g>
	<path d="M80.536,65.467H69.524c-0.457,0-0.827-0.37-0.827-0.827V41.006c0-0.457,0.37-0.827,0.827-0.827h11.012   c0.457,0,0.827,0.37,0.827,0.827V64.64C81.363,65.097,80.993,65.467,80.536,65.467z M70.352,63.812h9.357V41.833h-9.357V63.812z"/>
</g>
<g>
	<path d="M69.524,71.883H33.059c-0.457,0-0.827-0.37-0.827-0.827V34.59c0-0.457,0.37-0.827,0.827-0.827h36.466   c0.457,0,0.827,0.37,0.827,0.827v36.466C70.352,71.513,69.981,71.883,69.524,71.883z M33.886,70.229h34.812V35.417H33.886V70.229z"/>
</g>
<g>
	<path d="M66.316,68.675H36.268c-0.457,0-0.827-0.37-0.827-0.827v-30.05c0-0.457,0.37-0.827,0.827-0.827h30.049   c0.457,0,0.827,0.37,0.827,0.827v30.05C67.144,68.305,66.773,68.675,66.316,68.675z M37.095,67.021h28.395V38.625H37.095V67.021z"/>
</g>
<text x="0.0" y="117.5" font-size="5.0" font-weight="bold" font-family="Helvetica Neue, Helvetica, Arial-Unicode, Arial, Sans-serif" fill="#000000">Created by MONTANA RUCOBO</text><text x="0.0" y="122.5" font-size="5.0" font-weight="bold" font-family="Helvetica Neue, Helvetica, Arial-Unicode, Arial, Sans-serif" fill="#000000">from the Noun Project</text></svg>