<svg xmlns="http://www.w3.org/2000/svg" xmlns:xlink="http://www.w3.org/1999/xlink" version="1.1" id="Your_Icon" x="0px" y="0px" width="100px" height="100px" viewBox="5.0 -10.0 100.0 135.0" enable-background="new 0 0 100 100" xml:space="preserve">
<path d="M58.197,52.068c-2.21,0-4.008-1.798-4.008-4.009c0-2.21,1.798-4.009,4.008-4.009c2.211,0,4.009,1.798,4.009,4.009  C62.206,50.271,60.408,52.068,58.197,52.068z M58.197,46.551c-0.831,0-1.508,0.677-1.508,1.509s0.677,1.509,1.508,1.509  c0.832,0,1.509-0.677,1.509-1.509S59.029,46.551,58.197,46.551z M58.197,61.996c-2.21,0-4.008-1.798-4.008-4.008  s1.798-4.008,4.008-4.008c2.211,0,4.009,1.798,4.009,4.008S60.408,61.996,58.197,61.996z M58.197,56.48  c-0.831,0-1.508,0.677-1.508,1.508s0.677,1.508,1.508,1.508c0.832,0,1.509-0.677,1.509-1.508S59.029,56.48,58.197,56.48z   M58.197,71.926c-2.21,0-4.008-1.799-4.008-4.01c0-2.21,1.798-4.008,4.008-4.008c2.211,0,4.009,1.798,4.009,4.008  C62.206,70.127,60.408,71.926,58.197,71.926z M58.197,66.408c-0.831,0-1.508,0.677-1.508,1.508c0,0.832,0.677,1.51,1.508,1.51  c0.832,0,1.509-0.678,1.509-1.51C59.706,67.085,59.029,66.408,58.197,66.408z M21.793,71.926c-2.211,0-4.01-1.799-4.01-4.01  c0-2.21,1.799-4.008,4.01-4.008c2.209,0,4.006,1.798,4.006,4.008C25.799,70.127,24.002,71.926,21.793,71.926z M21.793,66.408  c-0.833,0-1.51,0.677-1.51,1.508c0,0.832,0.677,1.51,1.51,1.51c0.831,0,1.506-0.678,1.506-1.51  C23.299,67.085,22.624,66.408,21.793,66.408z M21.793,61.996c-2.211,0-4.01-1.798-4.01-4.008s1.799-4.008,4.01-4.008  c2.209,0,4.006,1.798,4.006,4.008S24.002,61.996,21.793,61.996z M21.793,56.48c-0.833,0-1.51,0.677-1.51,1.508  s0.677,1.508,1.51,1.508c0.831,0,1.506-0.677,1.506-1.508S22.624,56.48,21.793,56.48z M21.793,52.068  c-2.211,0-4.01-1.798-4.01-4.009c0-2.21,1.799-4.009,4.01-4.009c2.209,0,4.006,1.798,4.006,4.009  C25.799,50.271,24.002,52.068,21.793,52.068z M21.793,46.551c-0.833,0-1.51,0.677-1.51,1.509s0.677,1.509,1.51,1.509  c0.831,0,1.506-0.677,1.506-1.509S22.624,46.551,21.793,46.551z M46.063,52.068c-2.211,0-4.01-1.798-4.01-4.009  c0-2.21,1.799-4.009,4.01-4.009c2.209,0,4.007,1.798,4.007,4.009C50.07,50.271,48.273,52.068,46.063,52.068z M46.063,46.551  c-0.833,0-1.51,0.677-1.51,1.509s0.677,1.509,1.51,1.509c0.831,0,1.507-0.677,1.507-1.509S46.895,46.551,46.063,46.551z   M46.063,61.996c-2.211,0-4.01-1.798-4.01-4.008s1.799-4.008,4.01-4.008c2.209,0,4.007,1.798,4.007,4.008  S48.273,61.996,46.063,61.996z M46.063,56.48c-0.833,0-1.51,0.677-1.51,1.508s0.677,1.508,1.51,1.508  c0.831,0,1.507-0.677,1.507-1.508S46.895,56.48,46.063,56.48z M33.929,52.068c-2.209,0-4.007-1.798-4.007-4.009  c0-2.21,1.798-4.009,4.007-4.009c2.21,0,4.008,1.798,4.008,4.009C37.937,50.271,36.139,52.068,33.929,52.068z M33.929,46.551  c-0.831,0-1.507,0.677-1.507,1.509s0.676,1.509,1.507,1.509c0.832,0,1.508-0.677,1.508-1.509S34.76,46.551,33.929,46.551z   M33.929,61.996c-2.209,0-4.007-1.798-4.007-4.008s1.798-4.008,4.007-4.008c2.21,0,4.008,1.798,4.008,4.008  S36.139,61.996,33.929,61.996z M33.929,56.48c-0.831,0-1.507,0.677-1.507,1.508s0.676,1.508,1.507,1.508  c0.832,0,1.508-0.677,1.508-1.508S34.76,56.48,33.929,56.48z M48.82,71.926H31.171c-1.907,0-3.458-1.552-3.458-3.459  c0-1.905,1.551-3.455,3.458-3.455H48.82c1.906,0,3.457,1.55,3.457,3.455C52.277,70.374,50.727,71.926,48.82,71.926z M31.171,67.512  c-0.52,0-0.958,0.438-0.958,0.955c0,0.528,0.43,0.959,0.958,0.959H48.82c0.528,0,0.957-0.431,0.957-0.959  c0-0.518-0.438-0.955-0.957-0.955H31.171z M79.013,50.606c-0.695,0-1.264,0.568-1.264,1.264v3.785c0,0.697,0.57,1.262,1.264,1.262  s1.264-0.566,1.264-1.262V51.87C80.276,51.175,79.706,50.606,79.013,50.606z M87.286,54.015c-0.003-0.09-0.006-0.178-0.013-0.244  c-0.314-3.773-3.178-6.819-6.785-7.484V35.882c0-2.59-2.182-3.556-3.557-3.556H29.966V26.78c0-1.375-0.966-3.557-3.557-3.557h-4.56  c-1.375,0-3.556,0.966-3.556,3.557v5.222c0,1.375,0.965,3.556,3.556,3.556h4.883v2.726H17.93c-3.26,0-5.912,2.653-5.912,5.915V71.78  c0,3.26,2.652,5.912,5.912,5.912h44.127c3.262,0,5.916-2.652,5.916-5.912V44.199c0-3.262-2.654-5.915-5.916-5.915H29.966v-2.726  h46.931c0.127,0.006,0.293,0.063,0.328,0.099c0,0,0.031,0.058,0.031,0.225v10.458c-3.731,0.812-6.536,4.152-6.536,8.181v6.986  c0,0.125,0.008,0.246,0.021,0.455c0.003,0.088,0.006,0.178,0.013,0.242c0.356,4.275,3.984,7.625,8.26,7.625  c4.573,0,8.294-3.732,8.294-8.375V54.47C87.307,54.345,87.299,54.224,87.286,54.015z M64.973,44.199V71.78  c0,1.605-1.309,2.912-2.916,2.912H17.93c-1.606,0-2.912-1.307-2.912-2.912V44.199c0-1.607,1.306-2.915,2.912-2.915h44.127  C63.664,41.284,64.973,42.591,64.973,44.199z M21.85,32.324v0.002c-0.162,0-0.221-0.029-0.222-0.029  c-0.04-0.038-0.096-0.204-0.101-0.294V26.78c0-0.164,0.03-0.222,0.029-0.222c0.038-0.04,0.205-0.096,0.294-0.102h4.56  c0.162,0,0.221,0.029,0.222,0.029c0.039,0.038,0.096,0.204,0.101,0.294v5.545H21.85z M84.807,61.507c0,3.211-2.6,5.822-5.794,5.822  c-2.985,0-5.52-2.342-5.77-5.352l-0.014-0.281c-0.004-0.062-0.01-0.125-0.01-0.242V54.47c0-3.211,2.599-5.822,5.793-5.822  c2.986,0,5.521,2.342,5.771,5.352l0.014,0.281c0.004,0.062,0.01,0.125,0.01,0.24V61.507z"/>
</svg>
