<svg xmlns="http://www.w3.org/2000/svg" xmlns:xlink="http://www.w3.org/1999/xlink" version="1.1" x="0px" y="0px" viewBox="5.0 -10.0 100.0 135.0" enable-background="new 0 0 100 100" xml:space="preserve">
<path d="M51.342,58.574c5.971-0.688,10.608-5.766,10.608-11.93c0-6.165-4.638-11.245-10.608-11.931l0,0  c-0.608,2.575-1.023,5.223-1.23,7.93c2.138,0.08,3.844,1.841,3.844,4.001c0,2.159-1.706,3.92-3.844,4  c0.207,2.707,0.622,5.354,1.23,7.928V58.574z"/>
<path d="M48.575,58.574c-5.971-0.688-10.608-5.766-10.608-11.93c0-6.165,4.637-11.245,10.609-11.931l0,0  c0.608,2.575,1.023,5.223,1.23,7.93c-2.137,0.08-3.845,1.841-3.845,4.001c0,2.159,1.708,3.92,3.845,4  C49.599,53.352,49.183,56,48.575,58.574L48.575,58.574z"/>
<path d="M46.021,66.471c-12.992-1.254-24.565-8.658-32.76-19.826c8.195-11.169,19.768-18.574,32.759-19.828l0,0  c-0.722-1.738-1.537-3.428-2.437-5.064v0c-5.785-2.237-12.072-3.464-18.646-3.464c-6.574,0-12.86,1.226-18.645,3.463l0,0  C2.229,29.135-0.083,37.62-0.083,46.645c0,9.023,2.312,17.508,6.375,24.891v0.002C12.076,73.773,18.364,75,24.938,75  c6.574,0,12.862-1.227,18.646-3.463h-0.001C44.484,69.9,45.299,68.209,46.021,66.471L46.021,66.471z"/>
<path d="M53.896,66.471c12.99-1.254,24.563-8.658,32.759-19.826l0,0C78.46,35.476,66.888,28.071,53.896,26.817v0  c0.723-1.738,1.537-3.43,2.438-5.066l0,0c5.784-2.237,12.072-3.463,18.646-3.463s12.862,1.227,18.646,3.464v0  C97.688,29.136,100,37.62,100,46.645c0,9.023-2.312,17.508-6.375,24.893l0,0C87.842,73.773,81.553,75,74.979,75  c-6.574,0-12.861-1.227-18.646-3.463v-0.002C55.433,69.9,54.619,68.209,53.896,66.471L53.896,66.471z"/>
</svg>
