<svg xmlns="http://www.w3.org/2000/svg" xmlns:xlink="http://www.w3.org/1999/xlink" version="1.1" id="Layer_1" x="0px" y="0px" width="100px" height="100px" viewBox="5.0 -10.0 100.0 135.0" enable-background="new 0 0 100 100" xml:space="preserve">
<g>
	<path d="M74.152,88.662H53.963c-1.363,0-2.633-0.694-3.368-1.842s-0.836-2.59-0.267-3.828c0.454-0.986,0.683-2.024,0.683-3.084   c0-4.075-3.315-7.391-7.389-7.391c-4.075,0-7.39,3.315-7.39,7.391c0,0.959,0.188,1.898,0.559,2.798   c0.325,0.578,0.51,1.246,0.51,1.956c0,2.209-1.791,4-4,4c-0.006-0.001-0.013-0.001-0.02,0H13.941c-2.209,0-4-1.791-4-4V64.684   c0-1.354,0.686-2.617,1.822-3.355c1.136-0.736,2.569-0.851,3.806-0.298c0.956,0.426,1.964,0.642,2.995,0.642   c4.075,0,7.39-3.315,7.39-7.39c0-4.075-3.315-7.39-7.39-7.39c-1.034,0-2.042,0.215-2.997,0.64c-1.238,0.55-2.67,0.437-3.805-0.3   c-1.136-0.738-1.821-2-1.821-3.354V24.099c0-2.209,1.791-4,4-4h14.869c-0.006-0.185-0.01-0.37-0.01-0.556   c0-8.486,6.904-15.389,15.39-15.389c8.486,0,15.389,6.903,15.389,15.389c0,0.186-0.003,0.371-0.01,0.556h14.582   c2.209,0,4,1.791,4,4v14.795c8.582-0.121,15.598,6.833,15.598,15.389s-7.019,15.515-15.598,15.389v14.991   C78.152,86.871,76.361,88.662,74.152,88.662z M58.992,80.662h11.16V64.858c0-1.326,0.657-2.566,1.756-3.312   c1.098-0.743,2.492-0.895,3.726-0.404c0.88,0.352,1.797,0.529,2.726,0.529c4.075,0,7.391-3.315,7.391-7.39   c0-4.075-3.315-7.39-7.391-7.39c-0.93,0-1.848,0.178-2.729,0.528c-1.232,0.491-2.627,0.338-3.725-0.406   c-1.098-0.745-1.754-1.984-1.754-3.311V28.099H54.627c-1.35,0-2.607-0.68-3.347-1.81c-0.739-1.129-0.859-2.555-0.319-3.791   c0.411-0.941,0.619-1.936,0.619-2.956c0-4.074-3.314-7.389-7.389-7.389s-7.39,3.315-7.39,7.389c0,1.02,0.208,2.014,0.619,2.955   c0.541,1.236,0.421,2.662-0.318,3.792s-1.998,1.81-3.347,1.81H17.941v10.806c0.207-0.008,0.415-0.013,0.623-0.013   c8.486,0,15.39,6.904,15.39,15.39s-6.904,15.39-15.39,15.39c-0.208,0-0.416-0.004-0.623-0.013v11.003H28.25   c-0.012-0.251-0.019-0.502-0.019-0.754c0-8.486,6.904-15.391,15.39-15.391c8.486,0,15.389,6.904,15.389,15.391   C59.011,80.16,59.004,80.412,58.992,80.662z"/>
</g>
<text x="0.0" y="117.5" font-size="5.0" font-weight="bold" font-family="Helvetica Neue, Helvetica, Arial-Unicode, Arial, Sans-serif" fill="#000000">Created by Thomas Le Bas</text><text x="0.0" y="122.5" font-size="5.0" font-weight="bold" font-family="Helvetica Neue, Helvetica, Arial-Unicode, Arial, Sans-serif" fill="#000000">from the Noun Project</text></svg>