<svg xmlns="http://www.w3.org/2000/svg" xmlns:xlink="http://www.w3.org/1999/xlink" version="1.1" id="Your_Icon" x="0px" y="0px" width="100px" height="100px" viewBox="5.0 -10.0 100.0 135.0" enable-background="new 0 0 100 100" xml:space="preserve">
<path d="M50.98,5c-2.521,0-5,0.21-7.411,0.63C22.84,9.16,7.01,27.26,7.01,48.97c0,14.129,6.7,26.73,17.1,34.78  c-9.84,0.98-16.58,2.98-16.58,5.3c0,3.29,13.55,5.95,30.26,5.95c15.96,0,30.71-2.94,30.39-5.59c7.011-2.99,13.08-7.74,17.67-13.71  c5.7-7.41,9.091-16.681,9.091-26.73C94.94,24.73,75.21,5,50.98,5z M71.15,82.08C68.36,82.68,65.47,83,62.5,83  c-22.64,0-41-18.36-41-41c0-10,3.58-19.17,9.54-26.29c5.83-3.52,12.66-5.54,19.94-5.54c21.39,0,38.789,17.4,38.789,38.8  C89.77,62.97,82.31,75.27,71.15,82.08z"/>
</svg>
